G75*
G70*
%OFA0B0*%
%FSLAX24Y24*%
%IPPOS*%
%LPD*%
%AMOC8*
5,1,8,0,0,1.08239X$1,22.5*
%
%ADD10C,0.0050*%
%ADD11C,0.0060*%
D10*
X011059Y001532D02*
X011134Y001457D01*
X011209Y001457D01*
X011284Y001532D01*
X011284Y001682D01*
X011359Y001757D01*
X011434Y001757D01*
X011509Y001682D01*
X011509Y001532D01*
X011434Y001457D01*
X011059Y001532D02*
X011059Y001682D01*
X011134Y001757D01*
X011059Y001917D02*
X011359Y001917D01*
X011509Y002068D01*
X011359Y002218D01*
X011059Y002218D01*
X011134Y002378D02*
X011059Y002453D01*
X011059Y002603D01*
X011134Y002678D01*
X011209Y002678D01*
X011509Y002378D01*
X011509Y002678D01*
X012859Y001907D02*
X013309Y001907D01*
X013309Y001757D02*
X013309Y002057D01*
X013009Y001757D02*
X012859Y001907D01*
X011434Y008707D02*
X011359Y008707D01*
X011284Y008782D01*
X011209Y008707D01*
X011134Y008707D01*
X011059Y008782D01*
X011059Y008932D01*
X011134Y009007D01*
X011209Y009007D01*
X011284Y008932D01*
X011359Y009007D01*
X011434Y009007D01*
X011509Y008932D01*
X011509Y008782D01*
X011434Y008707D01*
X011284Y008782D02*
X011284Y008932D01*
X011209Y009457D02*
X011284Y009532D01*
X011284Y009682D01*
X011359Y009757D01*
X011434Y009757D01*
X011509Y009682D01*
X011509Y009532D01*
X011434Y009457D01*
X011209Y009457D02*
X011134Y009457D01*
X011059Y009532D01*
X011059Y009682D01*
X011134Y009757D01*
X011059Y009917D02*
X011359Y009917D01*
X011509Y010068D01*
X011359Y010218D01*
X011059Y010218D01*
X011134Y010378D02*
X011059Y010453D01*
X011059Y010603D01*
X011134Y010678D01*
X011209Y010678D01*
X011284Y010603D01*
X011359Y010678D01*
X011434Y010678D01*
X011509Y010603D01*
X011509Y010453D01*
X011434Y010378D01*
X011284Y010528D02*
X011284Y010603D01*
X012859Y009907D02*
X013309Y009907D01*
X013309Y009757D02*
X013309Y010057D01*
X013009Y009757D02*
X012859Y009907D01*
X005559Y009837D02*
X005559Y009536D01*
X005259Y009837D01*
X005184Y009837D01*
X005109Y009762D01*
X005109Y009611D01*
X005184Y009536D01*
X005184Y009997D02*
X005109Y010072D01*
X005109Y010222D01*
X005184Y010297D01*
X005484Y009997D01*
X005559Y010072D01*
X005559Y010222D01*
X005484Y010297D01*
X005184Y010297D01*
X005184Y009997D02*
X005484Y009997D01*
X011134Y016707D02*
X011209Y016707D01*
X011284Y016782D01*
X011359Y016707D01*
X011434Y016707D01*
X011509Y016782D01*
X011509Y016932D01*
X011434Y017007D01*
X011359Y017007D01*
X011284Y016932D01*
X011284Y016782D01*
X011284Y016932D02*
X011209Y017007D01*
X011134Y017007D01*
X011059Y016932D01*
X011059Y016782D01*
X011134Y016707D01*
X013259Y017807D02*
X013559Y017807D01*
X013409Y017807D02*
X013409Y018257D01*
X013259Y018107D01*
X013184Y019607D02*
X013034Y019607D01*
X012959Y019682D01*
X013034Y019832D02*
X013184Y019832D01*
X013259Y019757D01*
X013259Y019682D01*
X013184Y019607D01*
X013034Y019832D02*
X012959Y019907D01*
X012959Y019982D01*
X013034Y020057D01*
X013184Y020057D01*
X013259Y019982D01*
X013419Y020057D02*
X013419Y019757D01*
X013569Y019607D01*
X013719Y019757D01*
X013719Y020057D01*
X013880Y019907D02*
X014030Y020057D01*
X014030Y019607D01*
X013880Y019607D02*
X014180Y019607D01*
X005559Y019222D02*
X005109Y019222D01*
X005334Y018997D01*
X005334Y019297D01*
X005409Y018837D02*
X005109Y018837D01*
X005409Y018837D02*
X005559Y018686D01*
X005409Y018536D01*
X005109Y018536D01*
X005184Y018376D02*
X005109Y018301D01*
X005109Y018151D01*
X005184Y018076D01*
X005259Y018076D01*
X005334Y018151D01*
X005334Y018301D01*
X005409Y018376D01*
X005484Y018376D01*
X005559Y018301D01*
X005559Y018151D01*
X005484Y018076D01*
X002759Y018697D02*
X002759Y018997D01*
X002759Y018847D02*
X002309Y018847D01*
X002459Y018697D01*
X025009Y019607D02*
X025309Y019607D01*
X025159Y019607D02*
X025159Y020057D01*
X025009Y019907D01*
X025469Y019982D02*
X025544Y020057D01*
X025694Y020057D01*
X025769Y019982D01*
X025769Y019907D01*
X025694Y019832D01*
X025769Y019757D01*
X025769Y019682D01*
X025694Y019607D01*
X025544Y019607D01*
X025469Y019682D01*
X025619Y019832D02*
X025694Y019832D01*
D11*
X025684Y019432D02*
X025184Y019432D01*
X024934Y019182D01*
X024684Y019432D01*
X024184Y019432D01*
X023934Y019182D01*
X023684Y019432D01*
X023184Y019432D01*
X022934Y019182D01*
X022684Y019432D01*
X022184Y019432D01*
X021934Y019182D01*
X021684Y019432D01*
X021184Y019432D01*
X020934Y019182D01*
X020684Y019432D01*
X020184Y019432D01*
X019934Y019182D01*
X019684Y019432D01*
X019184Y019432D01*
X018934Y019182D01*
X018684Y019432D01*
X018184Y019432D01*
X017934Y019182D01*
X017684Y019432D01*
X017184Y019432D01*
X016934Y019182D01*
X016684Y019432D01*
X016184Y019432D01*
X015934Y019182D01*
X015684Y019432D01*
X015184Y019432D01*
X014934Y019182D01*
X014684Y019432D01*
X014184Y019432D01*
X013934Y019182D01*
X013684Y019432D01*
X013184Y019432D01*
X012934Y019182D01*
X012934Y018682D01*
X013184Y018432D01*
X013684Y018432D01*
X013934Y018682D01*
X014184Y018432D01*
X014684Y018432D01*
X014934Y018682D01*
X015184Y018432D01*
X015684Y018432D01*
X015934Y018682D01*
X016184Y018432D01*
X016684Y018432D01*
X016934Y018682D01*
X017184Y018432D01*
X017684Y018432D01*
X017934Y018682D01*
X018184Y018432D01*
X018684Y018432D01*
X018934Y018682D01*
X019184Y018432D01*
X019684Y018432D01*
X019934Y018682D01*
X020184Y018432D01*
X020684Y018432D01*
X020934Y018682D01*
X021184Y018432D01*
X021684Y018432D01*
X021934Y018682D01*
X022184Y018432D01*
X022684Y018432D01*
X022934Y018682D01*
X023184Y018432D01*
X023684Y018432D01*
X023934Y018682D01*
X024184Y018432D01*
X024684Y018432D01*
X024934Y018682D01*
X025184Y018432D01*
X025684Y018432D01*
X025934Y018682D01*
X025934Y019182D01*
X025684Y019432D01*
X012684Y017182D02*
X012684Y016682D01*
X012434Y016432D01*
X012684Y016182D01*
X012684Y015682D01*
X012434Y015432D01*
X012684Y015182D01*
X012684Y014682D01*
X012434Y014432D01*
X012684Y014182D01*
X012684Y013682D01*
X012434Y013432D01*
X012684Y013182D01*
X012684Y012682D01*
X012434Y012432D01*
X012684Y012182D01*
X012684Y011682D01*
X012434Y011432D01*
X012684Y011182D01*
X012684Y010682D01*
X012434Y010432D01*
X012684Y010182D01*
X012684Y009682D01*
X012434Y009432D01*
X011934Y009432D01*
X011684Y009682D01*
X011684Y010182D01*
X011934Y010432D01*
X011684Y010682D01*
X011684Y011182D01*
X011934Y011432D01*
X011684Y011682D01*
X011684Y012182D01*
X011934Y012432D01*
X011684Y012682D01*
X011684Y013182D01*
X011934Y013432D01*
X011684Y013682D01*
X011684Y014182D01*
X011934Y014432D01*
X011684Y014682D01*
X011684Y015182D01*
X011934Y015432D01*
X011684Y015682D01*
X011684Y016182D01*
X011934Y016432D01*
X011684Y016682D01*
X011684Y017182D01*
X011934Y017432D01*
X012434Y017432D01*
X012684Y017182D01*
X004934Y017182D02*
X004934Y016682D01*
X004684Y016432D01*
X004934Y016182D01*
X004934Y015682D01*
X004684Y015432D01*
X004934Y015182D01*
X004934Y014682D01*
X004684Y014432D01*
X004934Y014182D01*
X004934Y013682D01*
X004684Y013432D01*
X004934Y013182D01*
X004934Y012682D01*
X004684Y012432D01*
X004934Y012182D01*
X004934Y011682D01*
X004684Y011432D01*
X004934Y011182D01*
X004934Y010682D01*
X004684Y010432D01*
X004934Y010182D01*
X004934Y009682D01*
X004684Y009432D01*
X003184Y009432D01*
X002934Y009682D01*
X002934Y010182D01*
X003184Y010432D01*
X002934Y010682D01*
X002934Y011182D01*
X003184Y011432D01*
X002934Y011682D01*
X002934Y012182D01*
X003184Y012432D01*
X002934Y012682D01*
X002934Y013182D01*
X003184Y013432D01*
X002934Y013682D01*
X002934Y014182D01*
X003184Y014432D01*
X002934Y014682D01*
X002934Y015182D01*
X003184Y015432D01*
X002934Y015682D01*
X002934Y016182D01*
X003184Y016432D01*
X002934Y016682D01*
X002934Y017182D01*
X003184Y017432D01*
X002934Y017682D01*
X002934Y018182D01*
X003184Y018432D01*
X002934Y018682D01*
X002934Y019182D01*
X003184Y019432D01*
X004684Y019432D01*
X004934Y019182D01*
X004934Y018682D01*
X004684Y018432D01*
X004934Y018182D01*
X004934Y017682D01*
X004684Y017432D01*
X004934Y017182D01*
X011934Y009432D02*
X012434Y009432D01*
X012684Y009182D01*
X012684Y008682D01*
X012434Y008432D01*
X012684Y008182D01*
X012684Y007682D01*
X012434Y007432D01*
X012684Y007182D01*
X012684Y006682D01*
X012434Y006432D01*
X012684Y006182D01*
X012684Y005682D01*
X012434Y005432D01*
X012684Y005182D01*
X012684Y004682D01*
X012434Y004432D01*
X012684Y004182D01*
X012684Y003682D01*
X012434Y003432D01*
X012684Y003182D01*
X012684Y002682D01*
X012434Y002432D01*
X012684Y002182D01*
X012684Y001682D01*
X012434Y001432D01*
X011934Y001432D01*
X011684Y001682D01*
X011684Y002182D01*
X011934Y002432D01*
X011684Y002682D01*
X011684Y003182D01*
X011934Y003432D01*
X011684Y003682D01*
X011684Y004182D01*
X011934Y004432D01*
X011684Y004682D01*
X011684Y005182D01*
X011934Y005432D01*
X011684Y005682D01*
X011684Y006182D01*
X011934Y006432D01*
X011684Y006682D01*
X011684Y007182D01*
X011934Y007432D01*
X011684Y007682D01*
X011684Y008182D01*
X011934Y008432D01*
X011684Y008682D01*
X011684Y009182D01*
X011934Y009432D01*
M02*
