G75*
G70*
%OFA0B0*%
%FSLAX24Y24*%
%IPPOS*%
%LPD*%
%AMOC8*
5,1,8,0,0,1.08239X$1,22.5*
%
%ADD10C,0.0000*%
D10*
X000249Y000184D02*
X000249Y021430D01*
X026619Y021430D01*
X026619Y000184D01*
X000249Y000184D01*
X003304Y006682D02*
X003306Y006732D01*
X003312Y006782D01*
X003322Y006831D01*
X003336Y006879D01*
X003353Y006926D01*
X003374Y006971D01*
X003399Y007015D01*
X003427Y007056D01*
X003459Y007095D01*
X003493Y007132D01*
X003530Y007166D01*
X003570Y007196D01*
X003612Y007223D01*
X003656Y007247D01*
X003702Y007268D01*
X003749Y007284D01*
X003797Y007297D01*
X003847Y007306D01*
X003896Y007311D01*
X003947Y007312D01*
X003997Y007309D01*
X004046Y007302D01*
X004095Y007291D01*
X004143Y007276D01*
X004189Y007258D01*
X004234Y007236D01*
X004277Y007210D01*
X004318Y007181D01*
X004357Y007149D01*
X004393Y007114D01*
X004425Y007076D01*
X004455Y007036D01*
X004482Y006993D01*
X004505Y006949D01*
X004524Y006903D01*
X004540Y006855D01*
X004552Y006806D01*
X004560Y006757D01*
X004564Y006707D01*
X004564Y006657D01*
X004560Y006607D01*
X004552Y006558D01*
X004540Y006509D01*
X004524Y006461D01*
X004505Y006415D01*
X004482Y006371D01*
X004455Y006328D01*
X004425Y006288D01*
X004393Y006250D01*
X004357Y006215D01*
X004318Y006183D01*
X004277Y006154D01*
X004234Y006128D01*
X004189Y006106D01*
X004143Y006088D01*
X004095Y006073D01*
X004046Y006062D01*
X003997Y006055D01*
X003947Y006052D01*
X003896Y006053D01*
X003847Y006058D01*
X003797Y006067D01*
X003749Y006080D01*
X003702Y006096D01*
X003656Y006117D01*
X003612Y006141D01*
X003570Y006168D01*
X003530Y006198D01*
X003493Y006232D01*
X003459Y006269D01*
X003427Y006308D01*
X003399Y006349D01*
X003374Y006393D01*
X003353Y006438D01*
X003336Y006485D01*
X003322Y006533D01*
X003312Y006582D01*
X003306Y006632D01*
X003304Y006682D01*
X005554Y006682D02*
X005556Y006732D01*
X005562Y006782D01*
X005572Y006831D01*
X005586Y006879D01*
X005603Y006926D01*
X005624Y006971D01*
X005649Y007015D01*
X005677Y007056D01*
X005709Y007095D01*
X005743Y007132D01*
X005780Y007166D01*
X005820Y007196D01*
X005862Y007223D01*
X005906Y007247D01*
X005952Y007268D01*
X005999Y007284D01*
X006047Y007297D01*
X006097Y007306D01*
X006146Y007311D01*
X006197Y007312D01*
X006247Y007309D01*
X006296Y007302D01*
X006345Y007291D01*
X006393Y007276D01*
X006439Y007258D01*
X006484Y007236D01*
X006527Y007210D01*
X006568Y007181D01*
X006607Y007149D01*
X006643Y007114D01*
X006675Y007076D01*
X006705Y007036D01*
X006732Y006993D01*
X006755Y006949D01*
X006774Y006903D01*
X006790Y006855D01*
X006802Y006806D01*
X006810Y006757D01*
X006814Y006707D01*
X006814Y006657D01*
X006810Y006607D01*
X006802Y006558D01*
X006790Y006509D01*
X006774Y006461D01*
X006755Y006415D01*
X006732Y006371D01*
X006705Y006328D01*
X006675Y006288D01*
X006643Y006250D01*
X006607Y006215D01*
X006568Y006183D01*
X006527Y006154D01*
X006484Y006128D01*
X006439Y006106D01*
X006393Y006088D01*
X006345Y006073D01*
X006296Y006062D01*
X006247Y006055D01*
X006197Y006052D01*
X006146Y006053D01*
X006097Y006058D01*
X006047Y006067D01*
X005999Y006080D01*
X005952Y006096D01*
X005906Y006117D01*
X005862Y006141D01*
X005820Y006168D01*
X005780Y006198D01*
X005743Y006232D01*
X005709Y006269D01*
X005677Y006308D01*
X005649Y006349D01*
X005624Y006393D01*
X005603Y006438D01*
X005586Y006485D01*
X005572Y006533D01*
X005562Y006582D01*
X005556Y006632D01*
X005554Y006682D01*
M02*
