G75*
G70*
%OFA0B0*%
%FSLAX24Y24*%
%IPPOS*%
%LPD*%
%AMOC8*
5,1,8,0,0,1.08239X$1,22.5*
%
%ADD10C,0.1512*%
%ADD11C,0.0720*%
%ADD12OC8,0.0720*%
%ADD13C,0.0523*%
%ADD14C,0.0912*%
D10*
X003934Y006682D03*
X006184Y006682D03*
D11*
X011884Y006932D02*
X012484Y006932D01*
X012484Y005932D02*
X011884Y005932D01*
X011884Y004932D02*
X012484Y004932D01*
X012484Y003932D02*
X011884Y003932D01*
X011884Y002932D02*
X012484Y002932D01*
X012484Y001932D02*
X011884Y001932D01*
X011884Y007932D02*
X012484Y007932D01*
X012484Y008932D02*
X011884Y008932D01*
X011884Y009932D02*
X012484Y009932D01*
X012484Y010932D02*
X011884Y010932D01*
X011884Y011932D02*
X012484Y011932D01*
X012484Y012932D02*
X011884Y012932D01*
X011884Y013932D02*
X012484Y013932D01*
X012484Y014932D02*
X011884Y014932D01*
X011884Y015932D02*
X012484Y015932D01*
X012484Y016932D02*
X011884Y016932D01*
X013434Y018632D02*
X013434Y019232D01*
X014434Y019232D02*
X014434Y018632D01*
X015434Y018632D02*
X015434Y019232D01*
X016434Y019232D02*
X016434Y018632D01*
X017434Y018632D02*
X017434Y019232D01*
X018434Y019232D02*
X018434Y018632D01*
X019434Y018632D02*
X019434Y019232D01*
X020434Y019232D02*
X020434Y018632D01*
X021434Y018632D02*
X021434Y019232D01*
X022434Y019232D02*
X022434Y018632D01*
X023434Y018632D02*
X023434Y019232D01*
X024434Y019232D02*
X024434Y018632D01*
X025434Y018632D02*
X025434Y019232D01*
D12*
X004434Y018932D03*
X003434Y018932D03*
X003434Y017932D03*
X004434Y017932D03*
X004434Y016932D03*
X003434Y016932D03*
X003434Y015932D03*
X004434Y015932D03*
X004434Y014932D03*
X003434Y014932D03*
X003434Y013932D03*
X004434Y013932D03*
X004434Y012932D03*
X003434Y012932D03*
X003434Y011932D03*
X004434Y011932D03*
X004434Y010932D03*
X004434Y009932D03*
X003434Y009932D03*
X003434Y010932D03*
D13*
X006184Y014182D03*
X007184Y014682D03*
X010184Y013432D03*
X010684Y013932D03*
X010684Y011432D03*
X011184Y010432D03*
X008184Y008932D03*
X008684Y006932D03*
X009184Y004932D03*
X007684Y010932D03*
D14*
X013934Y010432D03*
X014934Y010432D03*
X015934Y010432D03*
X016934Y010432D03*
X017934Y010432D03*
X017934Y009432D03*
X016934Y009432D03*
X015934Y009432D03*
X014934Y009432D03*
X013934Y009432D03*
X013934Y008432D03*
X014934Y008432D03*
X015934Y008432D03*
X016934Y008432D03*
X017934Y008432D03*
X017934Y007432D03*
X016934Y007432D03*
X016934Y006432D03*
X017934Y006432D03*
X017934Y005432D03*
X016934Y005432D03*
X016934Y004432D03*
X017934Y004432D03*
X017934Y003432D03*
X016934Y003432D03*
X016934Y002432D03*
X017934Y002432D03*
X017934Y001432D03*
X016934Y001432D03*
X015934Y001432D03*
X014934Y001432D03*
X013934Y001432D03*
X013934Y002432D03*
X014934Y002432D03*
X015934Y002432D03*
X015934Y003432D03*
X014934Y003432D03*
X013934Y003432D03*
X013934Y004432D03*
X014934Y004432D03*
X015934Y004432D03*
X015934Y005432D03*
X014934Y005432D03*
X013934Y005432D03*
X013934Y006432D03*
X014934Y006432D03*
X015934Y006432D03*
X015934Y007432D03*
X014934Y007432D03*
X013934Y007432D03*
X013934Y011432D03*
X014934Y011432D03*
X015934Y011432D03*
X016934Y011432D03*
X017934Y011432D03*
X017934Y012432D03*
X016934Y012432D03*
X015934Y012432D03*
X014934Y012432D03*
X013934Y012432D03*
X013934Y013432D03*
X014934Y013432D03*
X015934Y013432D03*
X016934Y013432D03*
X017934Y013432D03*
X017934Y014432D03*
X016934Y014432D03*
X015934Y014432D03*
X014934Y014432D03*
X013934Y014432D03*
X013934Y015432D03*
X014934Y015432D03*
X015934Y015432D03*
X016934Y015432D03*
X017934Y015432D03*
X017934Y016432D03*
X016934Y016432D03*
X016934Y017432D03*
X017934Y017432D03*
X015934Y017432D03*
X015934Y016432D03*
X014934Y016432D03*
X014934Y017432D03*
X013934Y017432D03*
X013934Y016432D03*
X020934Y016432D03*
X021934Y016432D03*
X022934Y016432D03*
X023934Y016432D03*
X024934Y016432D03*
X024934Y017432D03*
X023934Y017432D03*
X022934Y017432D03*
X021934Y017432D03*
X020934Y017432D03*
X020934Y015432D03*
X021934Y015432D03*
X022934Y015432D03*
X023934Y015432D03*
X024934Y015432D03*
X024934Y014432D03*
X023934Y014432D03*
X023934Y013432D03*
X024934Y013432D03*
X024934Y012432D03*
X023934Y012432D03*
X023934Y011432D03*
X024934Y011432D03*
X024934Y010432D03*
X023934Y010432D03*
X023934Y009432D03*
X024934Y009432D03*
X024934Y008432D03*
X023934Y008432D03*
X022934Y008432D03*
X021934Y008432D03*
X020934Y008432D03*
X020934Y007432D03*
X021934Y007432D03*
X022934Y007432D03*
X023934Y007432D03*
X024934Y007432D03*
X024934Y006432D03*
X023934Y006432D03*
X022934Y006432D03*
X021934Y006432D03*
X020934Y006432D03*
X020934Y005432D03*
X021934Y005432D03*
X022934Y005432D03*
X023934Y005432D03*
X024934Y005432D03*
X024934Y004432D03*
X023934Y004432D03*
X022934Y004432D03*
X021934Y004432D03*
X020934Y004432D03*
X020934Y003432D03*
X021934Y003432D03*
X022934Y003432D03*
X023934Y003432D03*
X024934Y003432D03*
X024934Y002432D03*
X023934Y002432D03*
X022934Y002432D03*
X021934Y002432D03*
X020934Y002432D03*
X020934Y001432D03*
X021934Y001432D03*
X022934Y001432D03*
X023934Y001432D03*
X024934Y001432D03*
X022934Y009432D03*
X022934Y010432D03*
X021934Y010432D03*
X021934Y009432D03*
X020934Y009432D03*
X020934Y010432D03*
X020934Y011432D03*
X021934Y011432D03*
X022934Y011432D03*
X022934Y012432D03*
X021934Y012432D03*
X020934Y012432D03*
X020934Y013432D03*
X021934Y013432D03*
X022934Y013432D03*
X022934Y014432D03*
X021934Y014432D03*
X020934Y014432D03*
M02*
