G75*
G70*
%OFA0B0*%
%FSLAX24Y24*%
%IPPOS*%
%LPD*%
%AMOC8*
5,1,8,0,0,1.08239X$1,22.5*
%
%ADD10R,0.0312X0.0852*%
%ADD11R,0.0614X0.0693*%
%ADD12R,0.0693X0.0614*%
%ADD13OC8,0.0624*%
%ADD14R,0.0600X0.0600*%
%ADD15R,0.0600X0.0887*%
%ADD16C,0.0624*%
%ADD17C,0.0900*%
%ADD18C,0.1260*%
%ADD19R,0.1260X0.0709*%
%ADD20R,0.0614X0.0732*%
%ADD21C,0.0624*%
%ADD22OC8,0.1020*%
%ADD23R,0.0570X0.0570*%
D10*
X006972Y004512D03*
X007472Y004512D03*
X007972Y004512D03*
X008472Y004512D03*
X011972Y004512D03*
X012472Y004512D03*
X012972Y004512D03*
X013472Y004512D03*
X016972Y004512D03*
X017472Y004512D03*
X017972Y004512D03*
X018472Y004512D03*
X021472Y004512D03*
X021972Y004512D03*
X022472Y004512D03*
X022972Y004512D03*
X022972Y006932D03*
X022472Y006932D03*
X021972Y006932D03*
X021472Y006932D03*
X018472Y006932D03*
X017972Y006932D03*
X017472Y006932D03*
X016972Y006932D03*
X013472Y006932D03*
X012972Y006932D03*
X012472Y006932D03*
X011972Y006932D03*
X008472Y006932D03*
X007972Y006932D03*
X007472Y006932D03*
X006972Y006932D03*
D11*
X001848Y002222D03*
X002596Y002222D03*
X002596Y003222D03*
X001848Y003222D03*
X006848Y003222D03*
X007596Y003222D03*
X009348Y003222D03*
X010096Y003222D03*
X011848Y003222D03*
X012596Y003222D03*
X014348Y003222D03*
X015096Y003222D03*
X016598Y003472D03*
X017346Y003472D03*
X017346Y002472D03*
X016598Y002472D03*
X015096Y002222D03*
X014348Y002222D03*
X012596Y002222D03*
X011848Y002222D03*
X010096Y002222D03*
X009348Y002222D03*
X007596Y002222D03*
X006848Y002222D03*
X016598Y001472D03*
X017346Y001472D03*
X021348Y002222D03*
X022096Y002222D03*
X022096Y003222D03*
X021348Y003222D03*
X020346Y005472D03*
X019598Y005472D03*
X019096Y008222D03*
X018348Y008222D03*
X018348Y009222D03*
X019096Y009222D03*
X019096Y010222D03*
X018348Y010222D03*
X017096Y010222D03*
X016348Y010222D03*
X013096Y009222D03*
X012348Y009222D03*
X010096Y009222D03*
X009348Y009222D03*
X008096Y009222D03*
X007348Y009222D03*
X007348Y008222D03*
X008096Y008222D03*
X012348Y008222D03*
X013096Y008222D03*
X002596Y008222D03*
X001848Y008222D03*
D12*
X006222Y008346D03*
X006222Y007598D03*
X005722Y006096D03*
X004722Y006096D03*
X004722Y005348D03*
X005722Y005348D03*
X010972Y005348D03*
X010972Y006096D03*
X011222Y007598D03*
X011222Y008346D03*
X016222Y008346D03*
X016222Y007598D03*
X020722Y007598D03*
X020722Y008346D03*
D13*
X021222Y009222D03*
X020222Y009222D03*
X020722Y009972D03*
X002472Y006222D03*
X002472Y005222D03*
D14*
X018448Y002424D03*
X018448Y001519D03*
D15*
X020495Y001972D03*
D16*
X024722Y003962D02*
X024722Y004482D01*
X025722Y004482D02*
X025722Y003962D01*
X026722Y003962D02*
X026722Y004482D01*
X027722Y004482D02*
X027722Y003962D01*
X027722Y006962D02*
X027722Y007482D01*
X026722Y007482D02*
X026722Y006962D01*
X025722Y006962D02*
X025722Y007482D01*
X024722Y007482D02*
X024722Y006962D01*
X015472Y005732D02*
X015472Y005212D01*
X015472Y009212D02*
X015472Y009732D01*
X002732Y006722D02*
X002212Y006722D01*
X002212Y004722D02*
X002732Y004722D01*
D17*
X030222Y002722D03*
X030222Y008722D03*
D18*
X031226Y009726D03*
X029218Y009726D03*
X029218Y007718D03*
X031226Y007718D03*
X031226Y003726D03*
X029218Y003726D03*
X029218Y001718D03*
X031226Y001718D03*
D19*
X027722Y008631D03*
X026222Y008631D03*
X026222Y009812D03*
X027722Y009812D03*
D20*
X027615Y002972D03*
X026828Y002972D03*
X025615Y002972D03*
X024828Y002972D03*
D21*
X030722Y004972D03*
X029722Y005472D03*
X030722Y005972D03*
X029722Y006472D03*
D22*
X023722Y007472D03*
X005472Y002226D03*
D23*
X008472Y002722D03*
X013472Y002722D03*
X018972Y004222D03*
X020222Y004472D03*
X019722Y003472D03*
X022972Y003472D03*
X023722Y003472D03*
X023972Y004472D03*
X019222Y006222D03*
X020472Y006472D03*
X019722Y006972D03*
X019972Y007722D03*
X017472Y008472D03*
X015472Y007722D03*
X013972Y006972D03*
X010472Y007722D03*
X008972Y006972D03*
X005472Y007722D03*
X011222Y009222D03*
X014222Y009222D03*
X023722Y009472D03*
X023722Y010222D03*
X003722Y010222D03*
M02*
